# xmcd
#
# Track frame offsets:
#	150
#	4964
#	21494
#	42751
#	60372
#	81486
#	99626
#	117744
#	124770
#	143546
#	164463
#	183660
#	201404
#	217852
#	236229
#	250241
#	267942
#	286372
#	302243
#
# Disc length: 4295 seconds
#
# Revision: 1
# Processed by: cddbd v1.5.2PL0 Copyright (c) Steve Scherf et al.
# Submitted via: audiograbber 1.83.01
#
DISCID=1f10c513
DTITLE=Akwid - La Novela
DYEAR=1900
DGENRE=
TTITLE0=Intro
TTITLE1=La Novela
TTITLE2=No Tengo Padre
TTITLE3=Traigo La Muerte a Mi Lado
TTITLE4=Sin Fortuna
TTITLE5=Ombligo a Ombligo
TTITLE6=Sola Contigo
TTITLE7=La Duda
TTITLE8=Desde La Prision
TTITLE9=Perdido En El Alcohol
TTITLE10=Me Siento Libre
TTITLE11=Amigo
TTITLE12=Ombligo A Ombligo Tucanes Remix
TTITLE13=Ombligo A Ombligo Bad Girls Mix
TTITLE14=La Novela Acustica
TTITLE15=Sin Fortuna Acustica
TTITLE16=Solo Contigo Acustica
TTITLE17=Desda La Prision Acustica
TTITLE18=Perdido En El Alcohol Acustica
EXTD=
EXTT0=
EXTT1=
EXTT2=
EXTT3=
EXTT4=
EXTT5=
EXTT6=
EXTT7=
EXTT8=
EXTT9=
EXTT10=
EXTT11=
EXTT12=
EXTT13=
EXTT14=
EXTT15=
EXTT16=
EXTT17=
EXTT18=
PLAYORDER=
